HIERARCHY
ROOT Hips
{
OFFSET 0.0000 111.0000 0.0000
CHANNELS 6 Xposition Yposition Zposition Yrotation Xrotation Zrotation
	JOINT RightUpperLeg
	{
		OFFSET -10.5000 -8.8000 0.0000
		CHANNELS 3 Yrotation Xrotation Zrotation
		JOINT RightLowerLeg
		{
			OFFSET 0.0000 -45.6000 0.0000
			CHANNELS 3 Yrotation Xrotation Zrotation
			JOINT RightFoot
			{
				OFFSET 0.0000 -46.7000 0.0000
				CHANNELS 3 Yrotation Xrotation Zrotation
				JOINT RightToe
				{
					OFFSET 0.0000 -8.0000 12.1000
					CHANNELS 3 Yrotation Xrotation Zrotation
					End Site
					{
						OFFSET 0.0000 0.0000 2.4200
					}
				}
			}
		}
	}
	JOINT LeftUpperLeg
	{
		OFFSET 10.5000 -8.8000 0.0000
		CHANNELS 3 Yrotation Xrotation Zrotation
		JOINT LeftLowerLeg
		{
			OFFSET 0.0000 -45.6000 0.0000
			CHANNELS 3 Yrotation Xrotation Zrotation
			JOINT LeftFoot
			{
				OFFSET 0.0000 -46.7000 0.0000
				CHANNELS 3 Yrotation Xrotation Zrotation
				JOINT LeftToe
				{
					OFFSET 0.0000 -8.0000 12.1000
					CHANNELS 3 Yrotation Xrotation Zrotation
					End Site
					{
						OFFSET 0.0000 0.0000 2.4200
					}
				}
			}
		}
	}
	JOINT Spine
	{
		OFFSET 0.0000 9.7000 0.0000
		CHANNELS 3 Yrotation Xrotation Zrotation
		JOINT Spine1
		{
			OFFSET 0.0000 11.2000 0.0000
			CHANNELS 3 Yrotation Xrotation Zrotation
			JOINT Spine2
			{
				OFFSET 0.0000 12.1000 0.0000
				CHANNELS 3 Yrotation Xrotation Zrotation
				JOINT Spine3
				{
					OFFSET 0.0000 11.7000 1.2000
					CHANNELS 3 Yrotation Xrotation Zrotation
					JOINT Neck
					{
						OFFSET 0.0000 12.0000 -1.2000
						CHANNELS 3 Yrotation Xrotation Zrotation
						JOINT Head
						{
							OFFSET 0.0000 10.0000 0.0000
							CHANNELS 3 Yrotation Xrotation Zrotation
							End Site
							{
								OFFSET 0.0000 20.0000 0.0000
							}
						}
					}
					JOINT RightShoulder
					{
						OFFSET -4.9000 4.0000 -1.2000
						CHANNELS 3 Yrotation Xrotation Zrotation
						JOINT RightUpperArm
						{
							OFFSET -15.6000 0.0000 0.0000
							CHANNELS 3 Yrotation Xrotation Zrotation
							JOINT RightLowerArm
							{
								OFFSET -25.9000 0.0000 0.0000
								CHANNELS 3 Yrotation Xrotation Zrotation
								JOINT RightHand
								{
									OFFSET -28.4000 0.0000 0.0000
									CHANNELS 3 Yrotation Xrotation Zrotation
									JOINT RightThumbFinger
									{
										OFFSET -3.4000 0.3000 4.2000
										CHANNELS 3 Yrotation Xrotation Zrotation
										JOINT RightThumbFinger1
										{
											OFFSET -3.5000 0.0000 3.5000
											CHANNELS 3 Yrotation Xrotation Zrotation
											JOINT RightThumbFinger2
											{
												OFFSET -2.5000 0.0000 2.4000
												CHANNELS 3 Yrotation Xrotation Zrotation
												End Site
												{
													OFFSET -2.1450 0.0000 2.0592
												}
											}
										}
									}
									JOINT RightIndexFinger
									{
										OFFSET -4.4000 0.7000 2.6000
										CHANNELS 3 Yrotation Xrotation Zrotation
										JOINT RightIndexFinger1
										{
											OFFSET -7.0000 -0.1000 1.4000
											CHANNELS 3 Yrotation Xrotation Zrotation
											JOINT RightIndexFinger2
											{
												OFFSET -5.0000 -0.2000 0.0000
												CHANNELS 3 Yrotation Xrotation Zrotation
												JOINT RightIndexFinger3
												{
													OFFSET -2.7000 -0.2000 0.0000
													CHANNELS 3 Yrotation Xrotation Zrotation
													End Site
													{
														OFFSET -2.3814 -0.1764 0.0000
													}
												}
											}
										}
									}
									JOINT RightMiddleFinger
									{
										OFFSET -4.6000 0.7000 1.0000
										CHANNELS 3 Yrotation Xrotation Zrotation
										JOINT RightMiddleFinger1
										{
											OFFSET -7.0000 -0.1000 0.4000
											CHANNELS 3 Yrotation Xrotation Zrotation
											JOINT RightMiddleFinger2
											{
												OFFSET -5.3000 -0.3000 0.0000
												CHANNELS 3 Yrotation Xrotation Zrotation
												JOINT RightMiddleFinger3
												{
													OFFSET -3.4000 -0.3000 0.0000
													CHANNELS 3 Yrotation Xrotation Zrotation
													End Site
													{
														OFFSET -2.9988 -0.2646 0.0000
													}
												}
											}
										}
									}
									JOINT RightRingFinger
									{
										OFFSET -4.5000 0.8000 -0.1000
										CHANNELS 3 Yrotation Xrotation Zrotation
										JOINT RightRingFinger1
										{
											OFFSET -6.3000 -0.1000 -0.7000
											CHANNELS 3 Yrotation Xrotation Zrotation
											JOINT RightRingFinger2
											{
												OFFSET -4.7000 -0.4000 0.0000
												CHANNELS 3 Yrotation Xrotation Zrotation
												JOINT RightRingFinger3
												{
													OFFSET -3.2000 -0.3000 0.0000
													CHANNELS 3 Yrotation Xrotation Zrotation
													End Site
													{
														OFFSET -2.8224 -0.2646 0.0000
													}
												}
											}
										}
									}
									JOINT RightPinkyFinger
									{
										OFFSET -4.3000 0.7000 -1.6000
										CHANNELS 3 Yrotation Xrotation Zrotation
										JOINT RightPinkyFinger1
										{
											OFFSET -5.6000 -0.1000 -1.5000
											CHANNELS 3 Yrotation Xrotation Zrotation
											JOINT RightPinkyFinger2
											{
												OFFSET -3.7000 -0.2000 0.0000
												CHANNELS 3 Yrotation Xrotation Zrotation
												JOINT RightPinkyFinger3
												{
													OFFSET -2.4000 -0.1000 0.0000
													CHANNELS 3 Yrotation Xrotation Zrotation
													End Site
													{
														OFFSET -2.1168 -0.0882 0.0000
													}
												}
											}
										}
									}
								}
							}
						}
					}
					JOINT LeftShoulder
					{
						OFFSET 4.9000 4.0000 -1.2000
						CHANNELS 3 Yrotation Xrotation Zrotation
						JOINT LeftUpperArm
						{
							OFFSET 15.6000 0.0000 0.0000
							CHANNELS 3 Yrotation Xrotation Zrotation
							JOINT LeftLowerArm
							{
								OFFSET 25.9000 0.0000 0.0000
								CHANNELS 3 Yrotation Xrotation Zrotation
								JOINT LeftHand
								{
									OFFSET 28.4000 0.0000 0.0000
									CHANNELS 3 Yrotation Xrotation Zrotation
									JOINT LeftThumbFinger
									{
										OFFSET 3.4000 0.3000 4.2000
										CHANNELS 3 Yrotation Xrotation Zrotation
										JOINT LeftThumbFinger1
										{
											OFFSET 3.5000 0.0000 3.5000
											CHANNELS 3 Yrotation Xrotation Zrotation
											JOINT LeftThumbFinger2
											{
												OFFSET 2.5000 0.0000 2.5000
												CHANNELS 3 Yrotation Xrotation Zrotation
												End Site
												{
													OFFSET 2.1450 0.0000 2.1450
												}
											}
										}
									}
									JOINT LeftIndexFinger
									{
										OFFSET 4.4000 0.7000 2.6000
										CHANNELS 3 Yrotation Xrotation Zrotation
										JOINT LeftIndexFinger1
										{
											OFFSET 7.0000 -0.1000 1.4000
											CHANNELS 3 Yrotation Xrotation Zrotation
											JOINT LeftIndexFinger2
											{
												OFFSET 5.0000 -0.2000 0.0000
												CHANNELS 3 Yrotation Xrotation Zrotation
												JOINT LeftIndexFinger3
												{
													OFFSET 2.7000 -0.2000 0.0000
													CHANNELS 3 Yrotation Xrotation Zrotation
													End Site
													{
														OFFSET 2.3814 -0.1764 0.0000
													}
												}
											}
										}
									}
									JOINT LeftMiddleFinger
									{
										OFFSET 4.6000 0.7000 1.0000
										CHANNELS 3 Yrotation Xrotation Zrotation
										JOINT LeftMiddleFinger1
										{
											OFFSET 7.0000 -0.1000 0.4000
											CHANNELS 3 Yrotation Xrotation Zrotation
											JOINT LeftMiddleFinger2
											{
												OFFSET 5.3000 -0.3000 0.0000
												CHANNELS 3 Yrotation Xrotation Zrotation
												JOINT LeftMiddleFinger3
												{
													OFFSET 3.4000 -0.3000 0.0000
													CHANNELS 3 Yrotation Xrotation Zrotation
													End Site
													{
														OFFSET 2.9988 -0.2646 0.0000
													}
												}
											}
										}
									}
									JOINT LeftRingFinger
									{
										OFFSET 4.5000 0.8000 -0.1000
										CHANNELS 3 Yrotation Xrotation Zrotation
										JOINT LeftRingFinger1
										{
											OFFSET 6.3000 -0.1000 -0.7000
											CHANNELS 3 Yrotation Xrotation Zrotation
											JOINT LeftRingFinger2
											{
												OFFSET 4.7000 -0.3000 0.0000
												CHANNELS 3 Yrotation Xrotation Zrotation
												JOINT LeftRingFinger3
												{
													OFFSET 3.2000 -0.2000 0.0000
													CHANNELS 3 Yrotation Xrotation Zrotation
													End Site
													{
														OFFSET 2.8224 -0.1764 0.0000
													}
												}
											}
										}
									}
									JOINT LeftPinkyFinger
									{
										OFFSET 4.3000 0.7000 -1.6000
										CHANNELS 3 Yrotation Xrotation Zrotation
										JOINT LeftPinkyFinger1
										{
											OFFSET 5.6000 -0.1000 -1.5000
											CHANNELS 3 Yrotation Xrotation Zrotation
											JOINT LeftPinkyFinger2
											{
												OFFSET 3.7000 -0.2000 0.1000
												CHANNELS 3 Yrotation Xrotation Zrotation
												JOINT LeftPinkyFinger3
												{
													OFFSET 2.4000 -0.1000 -0.1000
													CHANNELS 3 Yrotation Xrotation Zrotation
													End Site
													{
														OFFSET 2.1168 -0.0882 -0.0882
													}
												}
											}
										}
									}
								}
							}
						}
					}
				}
			}
		}
	}
}
MOTION
Frames: 5
Frame Time: 0.0166667
-61.4733 -0.7803 -53.8841 107.54 0.59 0.91 2.11 -8.84 2.51 8.55 15.20 1.94 -12.09 -7.21 -2.63 0.00 0.00 0.00 -19.80 -30.78 14.76 11.04 55.72 -5.61 3.18 4.20 -4.38 -0.00 -0.00 0.00 0.92 0.17 -0.55 0.33 0.20 -0.22 0.36 0.21 -0.24 0.36 0.21 -0.24 -4.74 1.17 0.47 -4.04 0.99 0.41 -0.08 6.44 -0.14 2.31 0.58 88.91 11.04 -6.68 3.98 -1.44 9.63 -0.02 -0.28 15.00 -0.23 -8.91 5.91 4.61 -11.81 7.57 8.66 0.00 0.00 -0.00 2.00 -0.01 0.15 -0.01 -0.10 2.89 -0.00 -0.05 1.43 0.00 0.00 -0.00 -0.00 -0.00 0.21 -0.00 -0.00 3.83 -0.00 -0.00 1.90 0.00 0.00 -0.00 -2.00 0.02 0.58 0.04 0.29 8.32 0.03 0.14 4.19 0.00 0.00 -0.00 -4.00 0.02 0.31 0.03 0.36 5.14 0.03 0.18 2.56 1.82 7.63 -1.74 3.04 -2.88 -83.99 -6.21 -0.82 -0.72 -1.70 6.79 5.60 -0.06 4.59 -0.06 1.11 1.85 -1.63 1.54 2.80 -2.50 -0.00 -0.00 0.00 -2.00 -0.01 -0.18 0.01 -0.12 -3.37 0.01 -0.06 -1.67 -0.00 -0.00 0.00 0.00 0.00 -0.22 0.00 0.00 -3.97 0.00 0.00 -1.97 -0.00 -0.00 0.00 2.00 0.01 -0.31 -0.02 0.18 -5.23 -0.01 0.09 -2.61 -0.00 -0.00 0.00 4.00 0.01 -0.16 -0.01 0.21 -3.00 -0.01 0.10 -1.48
-61.7415 -0.7716 -53.3788 108.33 0.68 1.04 1.51 -9.14 2.66 8.48 15.23 1.83 -12.24 -6.94 -2.79 0.00 0.00 0.00 -24.25 -33.81 18.00 12.24 60.91 -6.80 3.68 4.71 -4.75 0.00 -0.00 0.00 0.92 0.19 -0.54 0.39 0.22 -0.25 0.42 0.24 -0.27 0.42 0.24 -0.27 -4.87 1.13 0.49 -4.15 0.96 0.43 0.02 6.81 -0.06 2.51 0.57 88.70 11.19 -6.78 4.08 -1.31 9.67 0.25 -0.29 14.97 -0.24 -8.94 5.90 4.48 -11.88 7.55 8.46 0.00 0.00 0.00 2.00 -0.01 0.15 -0.01 -0.10 2.89 -0.00 -0.05 1.43 0.00 0.00 0.00 -0.00 -0.00 0.21 -0.00 -0.00 3.87 -0.00 -0.00 1.92 0.00 0.00 0.00 -2.00 0.02 0.58 0.04 0.29 8.33 0.03 0.14 4.20 0.00 0.00 0.00 -4.00 0.02 0.30 0.03 0.36 5.12 0.02 0.18 2.55 1.95 7.98 -1.83 3.33 -2.88 -83.92 -6.44 -0.53 -0.84 -1.55 7.08 5.58 -0.06 4.61 -0.06 1.10 1.86 -1.62 1.53 2.81 -2.49 0.00 0.00 0.00 -2.00 -0.01 -0.18 0.01 -0.12 -3.36 0.01 -0.06 -1.66 0.00 0.00 0.00 0.00 0.00 -0.22 0.00 0.00 -3.96 0.00 0.00 -1.97 0.00 0.00 0.00 2.00 0.01 -0.31 -0.02 0.18 -5.23 -0.01 0.09 -2.61 0.00 0.00 0.00 4.00 0.01 -0.16 -0.01 0.21 -2.99 -0.01 0.10 -1.48
-61.9760 -0.7675 -52.8000 109.16 0.76 1.20 0.68 -9.44 2.86 8.49 15.28 1.70 -12.30 -6.70 -3.01 0.00 -0.00 -0.00 -29.28 -36.68 21.86 12.67 66.17 -8.83 4.17 4.93 -5.06 -0.00 0.00 0.00 0.92 0.21 -0.53 0.45 0.25 -0.28 0.48 0.27 -0.30 0.48 0.27 -0.30 -5.06 1.09 0.54 -4.31 0.93 0.46 0.06 7.13 0.02 2.78 0.56 88.44 11.30 -6.92 4.13 -1.21 9.67 0.48 -0.29 14.95 -0.24 -8.92 5.88 4.36 -11.89 7.53 8.27 -0.00 0.00 -0.00 2.00 -0.01 0.15 -0.01 -0.10 2.87 -0.00 -0.05 1.42 -0.00 0.00 -0.00 -0.00 0.00 0.21 -0.00 0.00 3.86 -0.00 0.00 1.92 -0.00 0.00 -0.00 -2.00 0.02 0.58 0.04 0.29 8.31 0.03 0.14 4.18 -0.00 0.00 -0.00 -4.00 0.02 0.30 0.03 0.36 5.10 0.02 0.18 2.54 2.05 8.31 -1.93 3.52 -2.90 -83.88 -6.59 -0.17 -0.91 -1.43 7.35 5.61 -0.06 4.62 -0.05 1.11 1.87 -1.62 1.55 2.82 -2.48 -0.00 0.00 0.00 -2.00 -0.01 -0.18 0.01 -0.12 -3.34 0.01 -0.06 -1.65 -0.00 0.00 0.00 0.00 0.00 -0.22 0.00 0.00 -3.96 0.00 0.00 -1.97 -0.00 0.00 0.00 2.00 0.01 -0.31 -0.02 0.18 -5.22 -0.01 0.09 -2.60 -0.00 0.00 0.00 4.00 0.01 -0.16 -0.01 0.21 -2.98 -0.01 0.10 -1.48
-62.1882 -0.7787 -52.1461 110.01 0.85 1.35 -0.38 -9.75 3.15 8.61 15.38 1.57 -12.26 -6.49 -3.28 -0.00 0.00 0.00 -34.78 -39.21 26.27 11.54 71.28 -12.40 4.64 4.92 -5.29 0.00 -0.00 0.00 0.92 0.25 -0.53 0.50 0.29 -0.31 0.54 0.31 -0.33 0.54 0.31 -0.33 -5.27 1.05 0.59 -4.49 0.89 0.51 0.06 7.39 0.09 3.01 0.56 88.18 11.30 -6.98 4.14 -1.15 9.62 0.61 -0.29 14.92 -0.24 -8.85 5.87 4.22 -11.83 7.53 8.04 -0.00 -0.00 -0.00 2.00 -0.01 0.15 -0.00 -0.10 2.84 -0.00 -0.05 1.41 -0.00 -0.00 -0.00 0.00 0.00 0.21 0.00 0.00 3.83 0.00 0.00 1.90 -0.00 -0.00 -0.00 -2.00 0.02 0.58 0.04 0.29 8.32 0.03 0.14 4.19 -0.00 -0.00 -0.00 -4.00 0.02 0.30 0.03 0.35 5.08 0.02 0.18 2.53 2.10 8.59 -1.99 3.71 -2.87 -83.93 -6.65 0.27 -0.93 -1.35 7.63 5.68 -0.06 4.63 -0.06 1.09 1.87 -1.61 1.52 2.83 -2.47 0.00 -0.00 0.00 -2.00 -0.01 -0.18 0.01 -0.12 -3.32 0.01 -0.06 -1.65 0.00 -0.00 0.00 0.00 -0.00 -0.22 0.00 0.00 -3.96 0.00 0.00 -1.97 0.00 -0.00 0.00 2.00 0.01 -0.31 -0.02 0.18 -5.22 -0.01 0.09 -2.60 0.00 -0.00 0.00 4.00 0.01 -0.16 -0.01 0.21 -2.97 -0.01 0.10 -1.47
-62.3947 -0.8240 -51.3406 110.84 0.95 1.49 -1.66 -10.13 3.59 8.72 15.55 1.39 -12.00 -6.31 -3.65 -0.00 0.00 -0.00 -40.73 -41.37 31.24 7.16 76.20 -19.24 5.15 4.67 -5.42 -0.00 -0.00 -0.00 0.91 0.28 -0.52 0.55 0.33 -0.33 0.59 0.35 -0.36 0.59 0.35 -0.36 -5.50 1.00 0.67 -4.69 0.85 0.57 0.04 7.57 0.15 3.11 0.58 87.96 11.23 -6.96 4.12 -1.13 9.52 0.63 -0.29 14.90 -0.24 -8.78 5.85 4.11 -11.76 7.54 7.84 -0.00 -0.00 0.00 2.00 -0.01 0.15 -0.00 -0.10 2.81 -0.00 -0.05 1.39 -0.00 -0.00 0.00 0.00 0.00 0.21 0.00 0.00 3.81 0.00 0.00 1.89 -0.00 -0.00 0.00 -2.00 0.02 0.58 0.04 0.29 8.33 0.03 0.14 4.20 -0.00 -0.00 0.00 -4.00 0.02 0.30 0.03 0.35 5.06 0.02 0.17 2.52 2.11 8.81 -1.99 3.85 -2.79 -84.05 -6.64 0.72 -0.91 -1.22 7.92 5.73 -0.07 4.61 -0.06 1.09 1.86 -1.62 1.51 2.81 -2.48 0.00 -0.00 -0.00 -2.00 -0.01 -0.18 0.01 -0.11 -3.31 0.01 -0.06 -1.64 0.00 -0.00 -0.00 -0.00 0.00 -0.22 -0.00 0.00 -3.95 -0.00 0.00 -1.96 0.00 -0.00 -0.00 2.00 0.01 -0.31 -0.02 0.18 -5.21 -0.01 0.09 -2.60 0.00 -0.00 -0.00 4.00 0.01 -0.16 -0.01 0.21 -2.96 -0.01 0.10 -1.47
